<?xml version="1.0" encoding="UTF-8"?>
<svg width="700px" height="700px" viewBox="0 0 700 700" version="1.1" xmlns="http://www.w3.org/2000/svg" xmlns:xlink="http://www.w3.org/1999/xlink">
    <!-- Generator: Sketch 41.2 (35397) - http://www.bohemiancoding.com/sketch -->
    <title>aba-logo</title>
    <desc>Created with Sketch.</desc>
    <defs>
        <rect id="path-1" x="0" y="0" width="642" height="663"></rect>
        <mask id="mask-2" maskContentUnits="userSpaceOnUse" maskUnits="objectBoundingBox" x="0" y="0" width="642" height="663" fill="white">
            <use xlink:href="#path-1"></use>
        </mask>
    </defs>
    <g id="Page-1" stroke="none" stroke-width="1" fill="none" fill-rule="evenodd">
        <g id="aba-logo">
            <rect id="base" fill="#0089CF" x="0" y="0" width="700" height="700"></rect>
            <g id="rectangles" transform="translate(29.000000, 19.000000)">
                <use id="white-border" stroke="#FFFFFF" mask="url(#mask-2)" stroke-width="34" fill="#0089CF" xlink:href="#path-1"></use>
                <rect id="center-for-background" fill="#FFFFFF" x="17" y="314" width="608.400024" height="78"></rect>
            </g>
            <g id="interior" transform="translate(42.000000, 46.000000)">
                <path d="M4.01358772,274.47216 C4.27757172,273.78422 9.63839972,264.28168 15.9265397,253.35539 C37.7572417,215.42229 74.5180467,151.30377 134.66845,46.2447 L161.14534,0 L309.55024,0.2447 L457.95514,0.489401 L465.40848,13.489401 C469.50783,20.639401 477.03717,33.914401 482.14036,42.989401 C492.88517,62.096872 519.74328,109.606651 551.67443,165.989401 C563.97791,187.714401 576.57633,209.989401 579.67092,215.489401 C582.76551,220.989401 591.45072,236.356901 598.97139,249.639391 C606.49206,262.921891 612.64534,274.242231 612.64534,274.795701 C612.64534,275.455111 600.19401,275.748141 576.52708,275.645711 L540.40883,275.489401 L516.27708,234.432851 C503.00463,211.851751 482.49164,176.930571 470.69268,156.830211 L449.24001,120.284121 L434.28368,119.636761 C414.19524,118.767271 394.64378,118.817901 394.65217,119.739401 C394.65617,120.151901 396.26324,121.582051 398.22398,122.917501 C400.18471,124.252961 404.16788,128.077961 407.07546,131.417501 C433.14435,161.359281 441.16132,199.970021 427.12733,227.989881 C417.33803,247.534921 398.76797,262.718281 372.14534,272.944571 L364.14534,276.017531 L297.90143,275.963331 L231.65751,275.909131 L231.40143,197.699251 L231.14534,119.489401 L199.64534,119.244911 L168.14534,119.000411 L156.55384,138.744911 C150.17852,149.604381 137.38293,171.314401 128.11921,186.989401 C118.85548,202.664401 103.45297,228.757121 93.8913997,244.973211 C84.3298327,261.189311 75.9754197,274.808991 75.3260357,275.239171 C74.6766527,275.669351 58.2577017,275.954181 38.8394767,275.872121 C11.0421047,275.754671 3.63568872,275.456931 4.01358372,274.472161 L4.01358772,274.47216 Z M341.228178,263.48244 C359.681338,253.864 372.825178,237.50637 380.193778,214.9894 C382.672448,207.4151 382.984418,204.96472 383.058398,192.4894 C383.152198,176.67171 381.875758,170.32556 376.170648,158.24526 C369.631348,144.39859 360.681708,133.76166 347.218238,123.83443 L339.291128,117.9894 L317.468238,117.9894 L295.645348,117.9894 L295.645348,192.4894 L295.645348,266.9894 L315.072688,266.9894 L334.500018,266.9894 L341.228178,263.48244 L341.228178,263.48244 Z M343.437868,101.4055 C350.033348,98.11884 356.004238,91.40647 360.289928,82.46071 C372.707658,56.540504 366.048178,29.060338 343.288738,12.305793 L337.425328,7.9894 L316.535338,7.9894 L295.645348,7.9894 L295.645348,55.9894 L295.645348,103.9894 L316.949008,103.9894 C337.852868,103.9894 338.349968,103.9409 343.437868,101.4055 L343.437868,101.4055 Z M228.105948,69.7394 C228.486618,51.4519 228.651218,31.3144 228.471708,24.9894 L228.145348,13.4894 L225.022218,18.9894 C223.304498,22.0144 216.381568,34.3894 209.637938,46.4894 C202.894298,58.5894 193.162208,75.981899 188.011058,85.1394 C182.859918,94.2969 178.645348,102.0594 178.645348,102.3894 C178.645348,102.7194 189.618258,102.9894 203.029588,102.9894 L227.413818,102.9894 L228.105948,69.7394 Z M438.001118,97.2394 C435.962998,94.0769 430.954338,86.0894 426.870778,79.4894 C422.787218,72.8894 418.739358,66.375839 417.875528,65.01482 C416.349908,62.611083 416.256498,62.828991 414.612798,72.626583 C412.648848,84.33303 409.517048,90.91632 402.460268,98.17216 L397.775198,102.9894 L419.740998,102.9894 L441.706808,102.9894 L438.001118,97.2394 Z" id="ABA" fill="#FFFFFF"></path>
                <g id="copy" transform="translate(0.000000, 263.000000)" font-family="AvenirNext-Heavy, Avenir Next" font-weight="600">
                    <text id="HUMAN" font-size="147" letter-spacing="-1.63333547" fill="#FFFFFF">
                        <tspan x="6.41133868" y="221">HUMAN</tspan>
                    </text>
                    <text id="RIGHTS" font-size="156.5" letter-spacing="-1.73353839" fill="#FFFFFF">
                        <tspan x="5.60786517" y="345">RIGHTS</tspan>
                    </text>
                    <text id="CENTER-FOR" font-size="97" letter-spacing="-1" fill="#0089CF">
                        <tspan x="0.7605" y="97">CENTER FO</tspan>
                        <tspan x="543.9815" y="97">R</tspan>
                    </text>
                </g>
            </g>
        </g>
    </g>
</svg>