<?xml version="1.0" encoding="UTF-8"?>
<svg width="609px" height="611px" viewBox="0 0 609 611" version="1.1" xmlns="http://www.w3.org/2000/svg" xmlns:xlink="http://www.w3.org/1999/xlink">
    <!-- Generator: Sketch 41.2 (35397) - http://www.bohemiancoding.com/sketch -->
    <title>aba-logo</title>
    <desc>Created with Sketch.</desc>
    <defs></defs>
    <g id="Page-1" stroke="none" stroke-width="1" fill="none" fill-rule="evenodd">
        <g id="aba-logo" transform="translate(-46.000000, -46.000000)">
            <g id="rectangles" transform="translate(29.000000, 19.000000)" fill="#FFFFFF">
                <rect id="center-for-background" x="17" y="314" width="608.400024" height="78"></rect>
            </g>
            <g id="interior" transform="translate(35.000000, 46.000000)">
                <path d="M11.0135877,274.47216 C11.2775717,273.78422 16.6383997,264.28168 22.9265397,253.35539 C44.7572417,215.42229 81.5180467,151.30377 141.66845,46.2447 L168.14534,0 L316.55024,0.2447 L464.95514,0.489401 L472.40848,13.489401 C476.50783,20.639401 484.03717,33.914401 489.14036,42.989401 C499.88517,62.096872 526.74328,109.606651 558.67443,165.989401 C570.97791,187.714401 583.57633,209.989401 586.67092,215.489401 C589.76551,220.989401 598.45072,236.356901 605.97139,249.639391 C613.49206,262.921891 619.64534,274.242231 619.64534,274.795701 C619.64534,275.455111 607.19401,275.748141 583.52708,275.645711 L547.40883,275.489401 L523.27708,234.432851 C510.00463,211.851751 489.49164,176.930571 477.69268,156.830211 L456.24001,120.284121 L441.28368,119.636761 C421.19524,118.767271 401.64378,118.817901 401.65217,119.739401 C401.65617,120.151901 403.26324,121.582051 405.22398,122.917501 C407.18471,124.252961 411.16788,128.077961 414.07546,131.417501 C440.14435,161.359281 448.16132,199.970021 434.12733,227.989881 C424.33803,247.534921 405.76797,262.718281 379.14534,272.944571 L371.14534,276.017531 L304.90143,275.963331 L238.65751,275.909131 L238.40143,197.699251 L238.14534,119.489401 L206.64534,119.244911 L175.14534,119.000411 L163.55384,138.744911 C157.17852,149.604381 144.38293,171.314401 135.11921,186.989401 C125.85548,202.664401 110.45297,228.757121 100.8914,244.973211 C91.3298327,261.189311 82.9754197,274.808991 82.3260357,275.239171 C81.6766527,275.669351 65.2577017,275.954181 45.8394767,275.872121 C18.0421047,275.754671 10.6356887,275.456931 11.0135837,274.472161 L11.0135877,274.47216 Z M348.228178,263.48244 C366.681338,253.864 379.825178,237.50637 387.193778,214.9894 C389.672448,207.4151 389.984418,204.96472 390.058398,192.4894 C390.152198,176.67171 388.875758,170.32556 383.170648,158.24526 C376.631348,144.39859 367.681708,133.76166 354.218238,123.83443 L346.291128,117.9894 L324.468238,117.9894 L302.645348,117.9894 L302.645348,192.4894 L302.645348,266.9894 L322.072688,266.9894 L341.500018,266.9894 L348.228178,263.48244 L348.228178,263.48244 Z M350.437868,101.4055 C357.033348,98.11884 363.004238,91.40647 367.289928,82.46071 C379.707658,56.540504 373.048178,29.060338 350.288738,12.305793 L344.425328,7.9894 L323.535338,7.9894 L302.645348,7.9894 L302.645348,55.9894 L302.645348,103.9894 L323.949008,103.9894 C344.852868,103.9894 345.349968,103.9409 350.437868,101.4055 L350.437868,101.4055 Z M235.105948,69.7394 C235.486618,51.4519 235.651218,31.3144 235.471708,24.9894 L235.145348,13.4894 L232.022218,18.9894 C230.304498,22.0144 223.381568,34.3894 216.637938,46.4894 C209.894298,58.5894 200.162208,75.981899 195.011058,85.1394 C189.859918,94.2969 185.645348,102.0594 185.645348,102.3894 C185.645348,102.7194 196.618258,102.9894 210.029588,102.9894 L234.413818,102.9894 L235.105948,69.7394 Z M445.001118,97.2394 C442.962998,94.0769 437.954338,86.0894 433.870778,79.4894 C429.787218,72.8894 425.739358,66.375839 424.875528,65.01482 C423.349908,62.611083 423.256498,62.828991 421.612798,72.626583 C419.648848,84.33303 416.517048,90.91632 409.460268,98.17216 L404.775198,102.9894 L426.740998,102.9894 L448.706808,102.9894 L445.001118,97.2394 Z" id="ABA" fill="#FFFFFF"></path>
                <g id="copy-copy" transform="translate(0.000000, 269.000000)">
                    <text id="HUMAN" font-family=".SFNSDisplay, .SF NS Display" font-size="158" font-weight="normal" letter-spacing="-1.75555801" fill="#FFFFFF">
                        <tspan x="37.9142857" y="215">HUMAN</tspan>
                    </text>
                    <text id="RIGHTS" font-family="AvenirNext-Bold, Avenir Next" font-size="158" font-weight="bold" letter-spacing="-1.75015378" fill="#FFFFFF">
                        <tspan x="24.0564613" y="339">RIGHTS</tspan>
                    </text>
                    <text id="CENTER-FOR" font-family=".SFNSDisplay, .SF NS Display" font-size="95" font-weight="normal" letter-spacing="-2.57596183" fill="#0089CF">
                        <tspan x="51.9921138" y="92">CENTER FOR</tspan>
                    </text>
                </g>
            </g>
        </g>
    </g>
</svg>